<svg xmlns="http://www.w3.org/2000/svg" viewBox="0 0 464.977 181.089"><g fill="#ffe900" style="clip-rule:evenodd;fill-rule:evenodd;stroke-linejoin:round;stroke-miterlimit:2"><path transform="matrix(.26458 0 0 .26458 -20.986 -8.905)" d="m957.827 387.679 73.238 24.389a1.99 1.99 0 0 1 1.357 2.023l-4.835 71.525a1.987 1.987 0 0 0 .567 1.53l21.737 22.103c.718.731.765 1.887.108 2.673l-29.239 34.992a1.992 1.992 0 0 1-2.279.567l-17.219-7.022a1.991 1.991 0 0 0-2.659 1.273l-8.065 26.974a1.99 1.99 0 0 1-1.322 1.332l-30.804 9.467a1.99 1.99 0 0 1-1.169 0l-30.804-9.467a1.987 1.987 0 0 1-1.322-1.332l-8.065-26.974a1.991 1.991 0 0 0-2.659-1.273l-17.219 7.022a1.992 1.992 0 0 1-2.279-.567l-29.239-34.992a1.992 1.992 0 0 1 .108-2.673l21.737-22.103c.399-.405.606-.962.567-1.53l-4.835-71.525a1.99 1.99 0 0 1 1.357-2.023zm-40.517 92.216c-10.672 0-19.337 8.665-19.337 19.337 0 10.673 8.665 19.337 19.337 19.337s19.337-8.664 19.337-19.337c0-10.672-8.665-19.337-19.337-19.337zm81.035 0c-10.672 0-19.337 8.665-19.337 19.337 0 10.673 8.665 19.337 19.337 19.337s19.337-8.664 19.337-19.337c0-10.672-8.665-19.337-19.337-19.337zm-41.364 40.24-10.993 16.059a1.49 1.49 0 0 0 .312 2.016l4.05 3.166a1.492 1.492 0 0 0 2.017-.168l4.947-5.396a.696.696 0 0 1 1.027 0l4.948 5.396a1.49 1.49 0 0 0 2.016.168l4.05-3.166a1.49 1.49 0 0 0 .312-2.016l-10.992-16.059a1.027 1.027 0 0 0-1.694 0zm-86.802-51.325a2.658 2.658 0 0 1-2.652 2.837H127.138c-.785 0-1.53-.346-2.035-.947l-45.162-53.696a2.66 2.66 0 0 1 2.034-4.369h781.923a2.658 2.658 0 0 1 2.65 2.49c.004.034.006.069.009.103zm.106 74.776a2.66 2.66 0 0 1-2.04 4.362H663.659a2.66 2.66 0 0 1-2.034-.947l-16.847-20.03a2.66 2.66 0 0 1 2.035-4.369h205.759a.38.38 0 0 1 .293.137zm-28.316-34.043a2.66 2.66 0 0 1-1.895.794H159.679a2.655 2.655 0 0 1-2.034-.947l-16.847-20.03a2.657 2.657 0 0 1 2.034-4.369h716.94a2.659 2.659 0 0 1 1.896 4.522zm-432.323 17.428a2.657 2.657 0 0 1 2.034-4.369h204.987a2.66 2.66 0 0 1 2.034.947l16.847 20.03a2.66 2.66 0 0 1-2.034 4.369H428.527a2.655 2.655 0 0 1-2.034-.947zm635.83-58.161 3.622-53.582c0-.034.01-.069.01-.103a2.658 2.658 0 0 1 2.65-2.49h781.923a2.66 2.66 0 0 1 2.034 4.369l-45.162 53.696a2.657 2.657 0 0 1-2.035.947h-740.389a2.658 2.658 0 0 1-2.652-2.837zm-.106 74.776 17.42-20.847a.38.38 0 0 1 .293-.137h205.759a2.658 2.658 0 0 1 2.035 4.369l-16.847 20.03a2.66 2.66 0 0 1-2.034.947H1047.41a2.658 2.658 0 0 1-2.04-4.362zm28.316-34.043-19.699-20.03a2.658 2.658 0 0 1 1.895-4.522h716.941a2.658 2.658 0 0 1 2.034 4.369l-16.847 20.03a2.655 2.655 0 0 1-2.034.947h-680.395a2.66 2.66 0 0 1-1.895-.794zm432.323 17.428-16.847 20.03a2.655 2.655 0 0 1-2.034.947h-204.987a2.657 2.657 0 0 1-2.034-4.369l16.847-20.03a2.66 2.66 0 0 1 2.034-.947h204.987a2.658 2.658 0 0 1 2.034 4.369z"/></g></svg>
